<mxfile host="app.diagrams.net" modified="2023-11-21T12:22:17.568Z" agent="Mozilla/5.0 (Windows NT 10.0; Win64; x64) AppleWebKit/537.36 (KHTML, like Gecko) Chrome/119.0.0.0 Safari/537.36" etag="IL7iuIiOD_ynXO57wfz8" version="22.1.3" type="github">
  <diagram name="Page-1" id="2YBvvXClWsGukQMizWep">
    <mxGraphModel dx="1372" dy="798" grid="1" gridSize="10" guides="1" tooltips="1" connect="1" arrows="1" fold="1" page="1" pageScale="1" pageWidth="850" pageHeight="1100" math="0" shadow="0">
      <root>
        <mxCell id="0" />
        <mxCell id="1" parent="0" />
        <mxCell id="MHyZyYuTQIOCusUvQ9U2-1" value="Issue Manager" style="rounded=1;whiteSpace=wrap;html=1;" parent="1" vertex="1">
          <mxGeometry x="80" y="60" width="120" height="60" as="geometry" />
        </mxCell>
        <mxCell id="MHyZyYuTQIOCusUvQ9U2-2" value="" style="endArrow=classic;html=1;rounded=0;exitX=0.5;exitY=1;exitDx=0;exitDy=0;entryX=0.5;entryY=0;entryDx=0;entryDy=0;entryPerimeter=0;" parent="1" source="MHyZyYuTQIOCusUvQ9U2-7" target="MHyZyYuTQIOCusUvQ9U2-3" edge="1">
          <mxGeometry width="50" height="50" relative="1" as="geometry">
            <mxPoint x="139.5" y="150" as="sourcePoint" />
            <mxPoint x="139.9000000000001" y="190" as="targetPoint" />
          </mxGeometry>
        </mxCell>
        <mxCell id="MHyZyYuTQIOCusUvQ9U2-3" value="developer" style="shape=umlActor;verticalLabelPosition=bottom;verticalAlign=top;html=1;outlineConnect=0;" parent="1" vertex="1">
          <mxGeometry x="125" y="190" width="30" height="60" as="geometry" />
        </mxCell>
        <mxCell id="MHyZyYuTQIOCusUvQ9U2-8" value="" style="endArrow=classic;html=1;rounded=0;exitX=0.5;exitY=1;exitDx=0;exitDy=0;entryX=0.5;entryY=0;entryDx=0;entryDy=0;entryPerimeter=0;" parent="1" source="MHyZyYuTQIOCusUvQ9U2-1" target="MHyZyYuTQIOCusUvQ9U2-7" edge="1">
          <mxGeometry width="50" height="50" relative="1" as="geometry">
            <mxPoint x="140" y="120" as="sourcePoint" />
            <mxPoint x="140" y="180" as="targetPoint" />
          </mxGeometry>
        </mxCell>
        <mxCell id="MHyZyYuTQIOCusUvQ9U2-12" value="" style="rounded=1;whiteSpace=wrap;html=1;dashed=1;dashPattern=8 8;" parent="1" vertex="1">
          <mxGeometry x="60" y="332.5" width="510" height="115" as="geometry" />
        </mxCell>
        <mxCell id="MHyZyYuTQIOCusUvQ9U2-7" value="assign new task" style="text;html=1;strokeColor=none;fillColor=none;align=center;verticalAlign=middle;whiteSpace=wrap;rounded=0;" parent="1" vertex="1">
          <mxGeometry x="105" y="140" width="70" height="30" as="geometry" />
        </mxCell>
        <mxCell id="MHyZyYuTQIOCusUvQ9U2-9" value="" style="endArrow=classic;html=1;rounded=0;" parent="1" edge="1">
          <mxGeometry width="50" height="50" relative="1" as="geometry">
            <mxPoint x="139.5" y="270" as="sourcePoint" />
            <mxPoint x="140" y="340" as="targetPoint" />
          </mxGeometry>
        </mxCell>
        <mxCell id="MHyZyYuTQIOCusUvQ9U2-10" value="source control (git/bitbucket)" style="rounded=1;whiteSpace=wrap;html=1;" parent="1" vertex="1">
          <mxGeometry x="80" y="340" width="120" height="70" as="geometry" />
        </mxCell>
        <mxCell id="MHyZyYuTQIOCusUvQ9U2-11" value="" style="endArrow=classic;html=1;rounded=0;" parent="1" edge="1">
          <mxGeometry width="50" height="50" relative="1" as="geometry">
            <mxPoint x="200" y="369.5" as="sourcePoint" />
            <mxPoint x="270" y="369.5" as="targetPoint" />
          </mxGeometry>
        </mxCell>
        <mxCell id="MHyZyYuTQIOCusUvQ9U2-13" value="build (Jenkins)" style="rounded=1;whiteSpace=wrap;html=1;" parent="1" vertex="1">
          <mxGeometry x="270" y="340" width="120" height="70" as="geometry" />
        </mxCell>
        <mxCell id="MHyZyYuTQIOCusUvQ9U2-14" value="UT&lt;span style=&quot;white-space: pre;&quot;&gt;&#x9;&lt;/span&gt;" style="rounded=1;whiteSpace=wrap;html=1;" parent="1" vertex="1">
          <mxGeometry x="340" y="386" width="40" height="20" as="geometry" />
        </mxCell>
        <mxCell id="MHyZyYuTQIOCusUvQ9U2-15" value="SQ analysis" style="rounded=1;whiteSpace=wrap;html=1;" parent="1" vertex="1">
          <mxGeometry x="430" y="345" width="100" height="45" as="geometry" />
        </mxCell>
        <mxCell id="MHyZyYuTQIOCusUvQ9U2-18" value="on failure" style="text;html=1;strokeColor=none;fillColor=none;align=center;verticalAlign=middle;whiteSpace=wrap;rounded=0;" parent="1" vertex="1">
          <mxGeometry x="460" y="230" width="70" height="30" as="geometry" />
        </mxCell>
        <mxCell id="MHyZyYuTQIOCusUvQ9U2-21" value="on success" style="text;html=1;strokeColor=none;fillColor=none;align=center;verticalAlign=middle;whiteSpace=wrap;rounded=0;" parent="1" vertex="1">
          <mxGeometry x="552.5" y="471.25" width="70" height="30" as="geometry" />
        </mxCell>
        <mxCell id="MHyZyYuTQIOCusUvQ9U2-26" value="" style="endArrow=classic;html=1;rounded=0;" parent="1" edge="1">
          <mxGeometry width="50" height="50" relative="1" as="geometry">
            <mxPoint x="390" y="369.5" as="sourcePoint" />
            <mxPoint x="430" y="370" as="targetPoint" />
          </mxGeometry>
        </mxCell>
        <mxCell id="MHyZyYuTQIOCusUvQ9U2-27" value="" style="edgeStyle=segmentEdgeStyle;endArrow=classic;html=1;curved=0;rounded=0;endSize=8;startSize=8;exitX=1;exitY=0.5;exitDx=0;exitDy=0;" parent="1" source="MHyZyYuTQIOCusUvQ9U2-15" edge="1">
          <mxGeometry width="50" height="50" relative="1" as="geometry">
            <mxPoint x="560" y="290" as="sourcePoint" />
            <mxPoint x="160" y="220" as="targetPoint" />
            <Array as="points">
              <mxPoint x="550" y="370" />
              <mxPoint x="550" y="250" />
              <mxPoint x="160" y="250" />
            </Array>
          </mxGeometry>
        </mxCell>
        <mxCell id="MHyZyYuTQIOCusUvQ9U2-20" value="" style="rounded=1;whiteSpace=wrap;html=1;dashed=1;dashPattern=8 8;" parent="1" vertex="1">
          <mxGeometry x="400" y="460" width="130" height="110" as="geometry" />
        </mxCell>
        <mxCell id="MHyZyYuTQIOCusUvQ9U2-29" value="" style="edgeStyle=segmentEdgeStyle;endArrow=classic;html=1;curved=0;rounded=0;endSize=8;startSize=8;entryX=1;entryY=0.5;entryDx=0;entryDy=0;exitX=1;exitY=0.75;exitDx=0;exitDy=0;" parent="1" edge="1">
          <mxGeometry width="50" height="50" relative="1" as="geometry">
            <mxPoint x="532.5" y="380" as="sourcePoint" />
            <mxPoint x="532.5" y="531.25" as="targetPoint" />
            <Array as="points">
              <mxPoint x="533" y="384" />
              <mxPoint x="553" y="384" />
              <mxPoint x="553" y="531" />
            </Array>
          </mxGeometry>
        </mxCell>
        <mxCell id="MHyZyYuTQIOCusUvQ9U2-32" value="" style="rounded=1;whiteSpace=wrap;html=1;dashed=1;dashPattern=8 8;" parent="1" vertex="1">
          <mxGeometry x="65" y="629" width="510" height="210" as="geometry" />
        </mxCell>
        <mxCell id="MHyZyYuTQIOCusUvQ9U2-34" value="Infrastructure&amp;nbsp;" style="rounded=1;whiteSpace=wrap;html=1;" parent="1" vertex="1">
          <mxGeometry x="107.5" y="789" width="425" height="40" as="geometry" />
        </mxCell>
        <mxCell id="MHyZyYuTQIOCusUvQ9U2-35" value="Platform" style="rounded=1;whiteSpace=wrap;html=1;arcSize=20;" parent="1" vertex="1">
          <mxGeometry x="170" y="739" width="280" height="40" as="geometry" />
        </mxCell>
        <mxCell id="MHyZyYuTQIOCusUvQ9U2-36" value="Application" style="rounded=1;whiteSpace=wrap;html=1;" parent="1" vertex="1">
          <mxGeometry x="220" y="684" width="170" height="40" as="geometry" />
        </mxCell>
        <mxCell id="MHyZyYuTQIOCusUvQ9U2-37" value="Infra readiness (provision VMs, Integration machines)" style="rounded=1;whiteSpace=wrap;html=1;" parent="1" vertex="1">
          <mxGeometry x="40" y="520" width="120" height="60" as="geometry" />
        </mxCell>
        <mxCell id="MHyZyYuTQIOCusUvQ9U2-38" value="" style="endArrow=classic;html=1;rounded=0;entryX=0.076;entryY=0;entryDx=0;entryDy=0;entryPerimeter=0;" parent="1" target="MHyZyYuTQIOCusUvQ9U2-34" edge="1">
          <mxGeometry width="50" height="50" relative="1" as="geometry">
            <mxPoint x="140" y="580" as="sourcePoint" />
            <mxPoint x="450" y="590" as="targetPoint" />
          </mxGeometry>
        </mxCell>
        <mxCell id="MHyZyYuTQIOCusUvQ9U2-40" value="Binary repository" style="rounded=1;whiteSpace=wrap;html=1;" parent="1" vertex="1">
          <mxGeometry x="420" y="471.25" width="70" height="30" as="geometry" />
        </mxCell>
        <mxCell id="MHyZyYuTQIOCusUvQ9U2-41" value="Shared Folder" style="rounded=1;whiteSpace=wrap;html=1;" parent="1" vertex="1">
          <mxGeometry x="420" y="520" width="90" height="30" as="geometry" />
        </mxCell>
        <mxCell id="MHyZyYuTQIOCusUvQ9U2-43" style="edgeStyle=isometricEdgeStyle;orthogonalLoop=1;jettySize=auto;html=1;exitX=1;exitY=0.5;exitDx=0;exitDy=0;entryX=0.615;entryY=0.818;entryDx=0;entryDy=0;entryPerimeter=0;endArrow=none;endFill=0;curved=1;" parent="1" source="MHyZyYuTQIOCusUvQ9U2-35" edge="1">
          <mxGeometry relative="1" as="geometry">
            <mxPoint x="393.27" y="860.02" as="sourcePoint" />
            <mxPoint x="493.22" y="550" as="targetPoint" />
          </mxGeometry>
        </mxCell>
        <mxCell id="MHyZyYuTQIOCusUvQ9U2-44" style="edgeStyle=orthogonalEdgeStyle;rounded=0;orthogonalLoop=1;jettySize=auto;html=1;" parent="1" edge="1">
          <mxGeometry relative="1" as="geometry">
            <mxPoint x="400" y="490" as="sourcePoint" />
            <mxPoint x="330" y="680" as="targetPoint" />
            <Array as="points">
              <mxPoint x="330" y="490" />
            </Array>
          </mxGeometry>
        </mxCell>
        <mxCell id="MHyZyYuTQIOCusUvQ9U2-45" value="&lt;h1&gt;CICD&lt;/h1&gt;" style="text;html=1;strokeColor=none;fillColor=none;spacing=5;spacingTop=-20;whiteSpace=wrap;overflow=hidden;rounded=0;" parent="1" vertex="1">
          <mxGeometry x="370" y="10" width="190" height="120" as="geometry" />
        </mxCell>
        <mxCell id="MHyZyYuTQIOCusUvQ9U2-46" value="Target Machine" style="text;html=1;strokeColor=none;fillColor=none;align=center;verticalAlign=middle;whiteSpace=wrap;rounded=0;" parent="1" vertex="1">
          <mxGeometry x="85" y="630" width="90" height="30" as="geometry" />
        </mxCell>
        <mxCell id="xTHZSAxEZLUwtTrjj7Id-1" value="" style="verticalLabelPosition=bottom;html=1;verticalAlign=top;align=center;strokeColor=none;fillColor=#00BEF2;shape=mxgraph.azure.bitbucket_code_source;" vertex="1" parent="1">
          <mxGeometry x="80" y="380" width="22.5" height="30" as="geometry" />
        </mxCell>
        <mxCell id="xTHZSAxEZLUwtTrjj7Id-2" value="" style="sketch=0;outlineConnect=0;fontColor=#232F3E;gradientColor=none;fillColor=#7AA116;strokeColor=none;dashed=0;verticalLabelPosition=bottom;verticalAlign=top;align=center;html=1;fontSize=12;fontStyle=0;aspect=fixed;pointerEvents=1;shape=mxgraph.aws4.iot_greengrass_artifact;" vertex="1" parent="1">
          <mxGeometry x="495" y="471.25" width="30" height="33.91" as="geometry" />
        </mxCell>
        <mxCell id="xTHZSAxEZLUwtTrjj7Id-3" value="" style="outlineConnect=0;dashed=0;verticalLabelPosition=bottom;verticalAlign=top;align=center;html=1;shape=mxgraph.aws3.codebuild;fillColor=#759C3E;gradientColor=none;" vertex="1" parent="1">
          <mxGeometry x="270" y="382" width="28.5" height="28" as="geometry" />
        </mxCell>
        <mxCell id="xTHZSAxEZLUwtTrjj7Id-4" value="" style="image;aspect=fixed;perimeter=ellipsePerimeter;html=1;align=center;shadow=0;dashed=0;fontColor=#4277BB;labelBackgroundColor=default;fontSize=12;spacingTop=3;image=img/lib/ibm/devops/build_test.svg;" vertex="1" parent="1">
          <mxGeometry x="307.5" y="383.5" width="25" height="25" as="geometry" />
        </mxCell>
        <mxCell id="xTHZSAxEZLUwtTrjj7Id-5" value="" style="image;html=1;image=img/lib/atlassian/Jira_Logo.svg;" vertex="1" parent="1">
          <mxGeometry x="284" y="150" width="72" height="72" as="geometry" />
        </mxCell>
      </root>
    </mxGraphModel>
  </diagram>
</mxfile>
